<svg id="Clothing_respected" data-name="Clothing respected" xmlns="http://www.w3.org/2000/svg" width="41" height="78" viewBox="0 0 41 78">
  <metadata><?xpacket begin="﻿" id="W5M0MpCehiHzreSzNTczkc9d"?>
<x:xmpmeta xmlns:x="adobe:ns:meta/" x:xmptk="Adobe XMP Core 5.6-c138 79.159824, 2016/09/14-01:09:01        ">
   <rdf:RDF xmlns:rdf="http://www.w3.org/1999/02/22-rdf-syntax-ns#">
      <rdf:Description rdf:about=""
            xmlns:xmp="http://ns.adobe.com/xap/1.0/">
         <xmp:CreatorTool>Adobe Photoshop CC 2017 (Windows)</xmp:CreatorTool>
      </rdf:Description>
   </rdf:RDF>
</x:xmpmeta>
                                                                                                    
                                                                                                    
                                                                                                    
                                                                                                    
                                                                                                    
                                                                                                    
                                                                                                    
                                                                                                    
                                                                                                    
                                                                                                    
                                                                                                    
                                                                                                    
                                                                                                    
                                                                                                    
                                                                                                    
                                                                                                    
                                                                                                    
                                                                                                    
                                                                                                    
                                                                                                    
                           
<?xpacket end="w"?></metadata>
<defs>
    <style>
      .cls-1 {
        fill: #353b3e;
      }

      .cls-1, .cls-2 {
        fill-rule: evenodd;
      }

      .cls-2 {
        fill: #fe9f00;
      }
    </style>
  </defs>
  <path class="cls-1" d="M131.94,6510.48a16.53,16.53,0,0,1,5.253,0,16.7,16.7,0,0,1,2.987.77v-6.66a5.714,5.714,0,0,0-.062-0.79c-0.01-.05-0.015-0.12-0.026-0.17a5.541,5.541,0,0,0-.161-0.67c-0.027-.08-0.054-0.16-0.085-0.25-0.016-.04-0.038-0.08-0.056-0.13A5.579,5.579,0,0,0,134.6,6499H134.54a5.6,5.6,0,0,0-5.586,5.59v6.66A16.7,16.7,0,0,1,131.94,6510.48Zm2.276-6.85a7.086,7.086,0,0,0,.351-0.71,7.307,7.307,0,0,0,.351.71,6.539,6.539,0,0,0,4.766,3.24,5.612,5.612,0,0,1-10.236,0A6.544,6.544,0,0,0,134.216,6503.63Zm8.254,9.18a1.755,1.755,0,0,0-.229-0.01h-4.609l-3.064,5.28-3.063-5.28H126.9v0.01a0.772,0.772,0,0,0-.151-0.01,2.75,2.75,0,0,0-2.755,2.74c0,0.08,0,.15.012,0.23s-0.012.15-.012,0.23v16.6a2.756,2.756,0,0,0,2.528,2.74c0.075,0,.15.01,0.227,0.01a2.394,2.394,0,0,0,.467-0.05l1.845,18.96a2.755,2.755,0,0,0,2.528,2.73c0.076,0,.149.01,0.227,0.01a2.75,2.75,0,0,0,2.754-2.74,2.755,2.755,0,0,0,2.528,2.73c0.075,0,.151.01,0.226,0.01a2.749,2.749,0,0,0,2.755-2.74l1.846-18.94a0.286,0.286,0,0,1,.089.02c0.077,0,.152.01,0.229,0.01A2.752,2.752,0,0,0,145,6532.6c0-.07-0.006-0.15-0.013-0.22s0.013-.16.013-0.23v-3h0v-13.61A2.747,2.747,0,0,0,142.47,6512.81Z" transform="translate(-124 -6499)"/>
  <path id="Shape_645_copy" data-name="Shape 645 copy" class="cls-2" d="M131.94,6510.48a16.53,16.53,0,0,1,5.253,0,16.7,16.7,0,0,1,2.987.77v-6.66a5.714,5.714,0,0,0-.062-0.79c-0.01-.05-0.015-0.12-0.026-0.17a5.541,5.541,0,0,0-.161-0.67c-0.027-.08-0.054-0.16-0.085-0.25-0.016-.04-0.038-0.08-0.056-0.13A5.579,5.579,0,0,0,134.6,6499H134.54a5.6,5.6,0,0,0-5.586,5.59v6.66A16.7,16.7,0,0,1,131.94,6510.48Zm2.276-6.85a7.086,7.086,0,0,0,.351-0.71,7.307,7.307,0,0,0,.351.71,6.539,6.539,0,0,0,4.766,3.24,5.612,5.612,0,0,1-10.236,0A6.544,6.544,0,0,0,134.216,6503.63Z" transform="translate(-124 -6499)"/>
  <path class="cls-2" d="M148.094,6517.55a6.821,6.821,0,0,0,2.605.89,6.337,6.337,0,0,0,1.589,0,6.646,6.646,0,0,0,2.6-.89A6.7,6.7,0,1,0,148.094,6517.55Zm12.912,4.12c-0.119-.01-0.238-0.02-0.36-0.02h-5.5l-0.206.36-3.448,6.02-3.45-6.02-0.2-.36h-5.5a4.348,4.348,0,0,0-4.324,4.14c-0.007.08-.026,0.16-0.026,0.25,0,0.12.009,0.24,0.019,0.36-0.009.12-.019,0.24-0.019,0.37v17.71a4.39,4.39,0,0,0,3.992,4.37c0.12,0.01.238,0.02,0.358,0.02a3.266,3.266,0,0,0,.448-0.05v21.79a4.376,4.376,0,0,0,3.992,4.37c0.121,0.01.24,0.02,0.361,0.02a4.368,4.368,0,0,0,4.351-4.39c0-.12-0.008-0.24-0.019-0.36,0.009-.12.019-0.24,0.019-0.37v0.73a4.374,4.374,0,0,0,3.991,4.37c0.12,0.01.238,0.02,0.36,0.02a4.366,4.366,0,0,0,4.351-4.39c0-.12-0.009-0.24-0.019-0.36,0.009-.12.019-0.24,0.019-0.37v-21.05a0.286,0.286,0,0,0,.089.02c0.118,0.01.238,0.02,0.36,0.02a4.422,4.422,0,0,0,4.351-4.39c0-.12-0.009-0.24-0.017-0.36s0.017-.25.017-0.37v-17.71c0-.09-0.019-0.17-0.024-0.25A4.359,4.359,0,0,0,161.006,6521.67Z" transform="translate(-124 -6499)"/>
  <path id="Shape_643_copy" data-name="Shape 643 copy" class="cls-1" d="M148.094,6517.55a6.821,6.821,0,0,0,2.605.89,6.337,6.337,0,0,0,1.589,0,6.646,6.646,0,0,0,2.6-.89A6.7,6.7,0,1,0,148.094,6517.55Z" transform="translate(-124 -6499)"/>
  <path id="Forma_1_copy_20" data-name="Forma 1 copy 20" class="cls-2" d="M164.939,6525.68s0.355-6.69-7.028-6.69h-2.046c-1.513,0-3.447,4.47-4.366,4.47-0.573,0-2.378-4.47-3.915-4.47h-2.471c-7.116,0-7.065,6.18-7.068,6.69l0,18.97a2.638,2.638,0,0,0,2.484,2.19,2.507,2.507,0,0,0,2.383-2.16l2.223,30.21c0.161,1.53,1.3,2.11,2.7,2.11s2.53-.58,2.692-2.11H152.5c0.17,1.53,1.3,2.11,2.691,2.11s2.534-.58,2.7-2.11l2.29-30.23a2.39,2.39,0,0,0,2.349,2.18,2.622,2.622,0,0,0,2.467-2.19Z" transform="translate(-124 -6499)"/>
</svg>
