<svg id="No_criminal_record" data-name="No criminal record" xmlns="http://www.w3.org/2000/svg" width="94" height="63" viewBox="0 0 94 63">
  <metadata><?xpacket begin="﻿" id="W5M0MpCehiHzreSzNTczkc9d"?>
<x:xmpmeta xmlns:x="adobe:ns:meta/" x:xmptk="Adobe XMP Core 5.6-c138 79.159824, 2016/09/14-01:09:01        ">
   <rdf:RDF xmlns:rdf="http://www.w3.org/1999/02/22-rdf-syntax-ns#">
      <rdf:Description rdf:about=""
            xmlns:xmp="http://ns.adobe.com/xap/1.0/">
         <xmp:CreatorTool>Adobe Photoshop CC 2017 (Windows)</xmp:CreatorTool>
      </rdf:Description>
   </rdf:RDF>
</x:xmpmeta>
                                                                                                    
                                                                                                    
                                                                                                    
                                                                                                    
                                                                                                    
                                                                                                    
                                                                                                    
                                                                                                    
                                                                                                    
                                                                                                    
                                                                                                    
                                                                                                    
                                                                                                    
                                                                                                    
                                                                                                    
                                                                                                    
                                                                                                    
                                                                                                    
                                                                                                    
                                                                                                    
                           
<?xpacket end="w"?></metadata>
<defs>
    <style>
      .cls-1 {
        fill: #fe9f00;
      }

      .cls-1, .cls-2 {
        fill-rule: evenodd;
      }

      .cls-2 {
        fill: #353b3e;
      }
    </style>
  </defs>
  <path class="cls-1" d="M152.014,7189.41a7.845,7.845,0,0,0,.2,1.74H129.076v-3.47h23.136A7.823,7.823,0,0,0,152.014,7189.41Zm13.435,0A5.444,5.444,0,1,1,160,7184,5.438,5.438,0,0,1,165.449,7189.41Zm25.478-1.73v3.47H167.79a7.7,7.7,0,0,0,0-3.47h23.137Zm-29.184,9.48V7247h-3.484v-49.84A7.686,7.686,0,0,0,161.743,7197.16Zm-32.35-2.57L113,7222.83c0,6.19,7.336,11.22,16.389,11.22s16.383-5.03,16.383-11.22Zm-12.669,26.1,12.669-21.83,12.662,21.83H116.724Zm73.89-26.1-16.389,28.24c0,6.19,7.34,11.22,16.389,11.22S207,7229.02,207,7222.83Zm-12.669,26.1,12.669-21.83,12.663,21.83H177.945Z" transform="translate(-113 -7184)"/>
  <path id="Shape_6_copy" data-name="Shape 6 copy" class="cls-2" d="M165.449,7189.41A5.444,5.444,0,1,1,160,7184,5.438,5.438,0,0,1,165.449,7189.41Z" transform="translate(-113 -7184)"/>
</svg>
