<svg id="privacy" xmlns="http://www.w3.org/2000/svg" width="60" height="76" viewBox="0 0 60 76">
  <metadata><?xpacket begin="﻿" id="W5M0MpCehiHzreSzNTczkc9d"?>
<x:xmpmeta xmlns:x="adobe:ns:meta/" x:xmptk="Adobe XMP Core 5.6-c138 79.159824, 2016/09/14-01:09:01        ">
   <rdf:RDF xmlns:rdf="http://www.w3.org/1999/02/22-rdf-syntax-ns#">
      <rdf:Description rdf:about=""
            xmlns:xmp="http://ns.adobe.com/xap/1.0/">
         <xmp:CreatorTool>Adobe Photoshop CC 2017 (Windows)</xmp:CreatorTool>
      </rdf:Description>
   </rdf:RDF>
</x:xmpmeta>
                                                                                                    
                                                                                                    
                                                                                                    
                                                                                                    
                                                                                                    
                                                                                                    
                                                                                                    
                                                                                                    
                                                                                                    
                                                                                                    
                                                                                                    
                                                                                                    
                                                                                                    
                                                                                                    
                                                                                                    
                                                                                                    
                                                                                                    
                                                                                                    
                                                                                                    
                                                                                                    
                           
<?xpacket end="w"?></metadata>
<defs>
    <style>
      .cls-1 {
        fill: #fe9f00;
      }

      .cls-1, .cls-2 {
        fill-rule: evenodd;
      }

      .cls-2 {
        fill: #353b3e;
      }
    </style>
  </defs>
  <path class="cls-1" d="M187.952,6898.8a13.375,13.375,0,0,0-22.806.46,13.147,13.147,0,0,0,.282,13.6,13.379,13.379,0,0,0,23.066-.93A13.137,13.137,0,0,0,187.952,6898.8Zm-2.321,7.83v0.81c0,1.3-1.771.99-2.631,0.99h-2.534a2.179,2.179,0,0,0-1.149.09v3.88c0,0.42.043,0.87,0,1.29,0,0.91-.865.99-1.558,0.99h-2.567c-1.371,0-1.129-1.45-1.129-2.39v-2.57a3.927,3.927,0,0,0,0-1.29,4.209,4.209,0,0,0-1.327,0H170.1c-1.063,0-2.351.19-2.351-1.25v-2.56c0-1.52,1.134-1.39,2.327-1.39h3.9a2.6,2.6,0,0,0,.084-1.23v-2.54c0-.86-0.279-2.48,1.035-2.48h2.531c0.607,0,1.32-.07,1.608.6a4.505,4.505,0,0,1,.08,1.62v3.73c0,0.53.567,0.3,1.027,0.3h2.517c0.853,0,2.517-.33,2.749.79A13.7,13.7,0,0,1,185.631,6906.63Zm-2.189-13.83a14.976,14.976,0,0,0-14.678.67,14.735,14.735,0,0,0-6.87,12.36,14.58,14.58,0,0,0,2.6,8.29,33,33,0,0,1-5.983,1.88,32.853,32.853,0,0,1-5.407-1.64,31.51,31.51,0,0,1-8.977-5.54c-6.94-6.12-10.9-14.91-12.756-23.78a65.407,65.407,0,0,1,.748-29.87,25.349,25.349,0,0,0,7.546,1.02,17.262,17.262,0,0,0,11.585-5.38c1.759-1.72,3.316-3.64,4.959-5.47,0.472-.53.952-1.05,1.447-1.55,0.211-.22.423-0.43,0.639-0.64,0.334-.32.363-0.06,0.647,0.21,0.865,0.85,1.681,1.75,2.483,2.67,3.053,3.47,6.083,7.24,10.511,9.04,4.151,1.68,8.739,1.27,12.967.1A63.578,63.578,0,0,1,183.442,6892.8Zm-24.286-49.22c-0.07-.07-0.14-0.15-0.211-0.22-0.284-.27-0.313-0.53-0.647-0.21-0.216.21-.428,0.42-0.639,0.64-0.5.5-.975,1.02-1.447,1.55-1.643,1.83-3.2,3.75-4.959,5.47a17.262,17.262,0,0,1-11.585,5.38,25.349,25.349,0,0,1-7.546-1.02,65.407,65.407,0,0,0-.748,29.87c1.856,8.87,5.816,17.66,12.756,23.78a31.51,31.51,0,0,0,8.977,5.54,32.853,32.853,0,0,0,5.407,1.64c0.214-.04.428-0.09,0.642-0.14v-72.28Z" transform="translate(-130 -6843)"/>
  <path id="Shape_7_copy" data-name="Shape 7 copy" class="cls-2" d="M187.952,6898.8a13.375,13.375,0,0,0-22.806.46,13.147,13.147,0,0,0,.282,13.6,13.379,13.379,0,0,0,23.066-.93A13.137,13.137,0,0,0,187.952,6898.8Zm-2.321,7.83v0.81c0,1.3-1.771.99-2.631,0.99h-2.534a2.179,2.179,0,0,0-1.149.09v3.88c0,0.42.043,0.87,0,1.29,0,0.91-.865.99-1.558,0.99h-2.567c-1.371,0-1.129-1.45-1.129-2.39v-2.57a3.927,3.927,0,0,0,0-1.29,4.209,4.209,0,0,0-1.327,0H170.1c-1.063,0-2.351.19-2.351-1.25v-2.56c0-1.52,1.134-1.39,2.327-1.39h3.9a2.6,2.6,0,0,0,.084-1.23v-2.54c0-.86-0.279-2.48,1.035-2.48h2.531c0.607,0,1.32-.07,1.608.6a4.505,4.505,0,0,1,.08,1.62v3.73c0,0.53.567,0.3,1.027,0.3h2.517c0.853,0,2.517-.33,2.749.79A13.7,13.7,0,0,1,185.631,6906.63Z" transform="translate(-130 -6843)"/>
</svg>
