<svg id="Welcoming" xmlns="http://www.w3.org/2000/svg" width="60" height="72" viewBox="0 0 60 72">
  <metadata><?xpacket begin="﻿" id="W5M0MpCehiHzreSzNTczkc9d"?>
<x:xmpmeta xmlns:x="adobe:ns:meta/" x:xmptk="Adobe XMP Core 5.6-c138 79.159824, 2016/09/14-01:09:01        ">
   <rdf:RDF xmlns:rdf="http://www.w3.org/1999/02/22-rdf-syntax-ns#">
      <rdf:Description rdf:about=""
            xmlns:xmp="http://ns.adobe.com/xap/1.0/">
         <xmp:CreatorTool>Adobe Photoshop CC 2017 (Windows)</xmp:CreatorTool>
      </rdf:Description>
   </rdf:RDF>
</x:xmpmeta>
                                                                                                    
                                                                                                    
                                                                                                    
                                                                                                    
                                                                                                    
                                                                                                    
                                                                                                    
                                                                                                    
                                                                                                    
                                                                                                    
                                                                                                    
                                                                                                    
                                                                                                    
                                                                                                    
                                                                                                    
                                                                                                    
                                                                                                    
                                                                                                    
                                                                                                    
                                                                                                    
                           
<?xpacket end="w"?></metadata>
<defs>
    <style>
      .cls-1 {
        fill: #fe9f00;
      }

      .cls-1, .cls-2 {
        fill-rule: evenodd;
      }

      .cls-2 {
        fill: #353b3e;
      }
    </style>
  </defs>
  <path class="cls-1" d="M165.635,6210.5l-0.832,11.07a5.9,5.9,0,0,1-5.935,5.42h-3.491a5.913,5.913,0,0,1-5.948-5.42l-0.843-11.07h17.049ZM187,6188.76a3.851,3.851,0,0,1-3,3.5v-0.99a5.091,5.091,0,0,0-5.111-5.06H168.337l-0.915-1.25-0.086,1.25H146.909l-0.108-1.56-1.143,1.56H135.112a5.091,5.091,0,0,0-5.11,5.06v0.99a3.852,3.852,0,0,1-3-3.5,3.909,3.909,0,0,1,3.466-4.04l7.441-.96,7.16-9.78a4.556,4.556,0,0,1,1.883-1.44,9.345,9.345,0,0,1,2.516-.71l1.242-.17a7.373,7.373,0,0,1,.941-0.06l1.966-.02h7.012l2.387,0.07,1.6,0.21a7.493,7.493,0,0,1,2.5.77,3.792,3.792,0,0,1,1.809,1.35l7.158,9.78,7.442,0.96A3.911,3.911,0,0,1,187,6188.76Zm-8.113,21.23h-43.77a4.577,4.577,0,0,1-4.593-4.55v-14.17a4.577,4.577,0,0,1,4.593-4.55h43.77a4.576,4.576,0,0,1,4.593,4.55v14.17A4.576,4.576,0,0,1,178.882,6209.99Zm-43.77-20.72a2.01,2.01,0,0,0-2.025,2v14.17a2.018,2.018,0,0,0,2.025,2.01h43.77a2.019,2.019,0,0,0,2.025-2.01v-14.17a2.011,2.011,0,0,0-2.025-2h-43.77Zm6.709,11.71h-1.87l-0.687-3.2h-0.029l-0.685,3.2h-1.871l-1.239-5.24h1.769l0.608,2.97h0.031l0.6-2.97h1.679l0.64,2.97h0.03l0.57-2.97h1.693Zm1.852,0v-5.24h4.581v1.25h-2.881v0.73h2.464v1.2h-2.464v0.8h2.934v1.26h-4.634Zm5.562,0v-5.24h1.7v3.9h2.717v1.34h-4.417Zm10.078-3.09H157.69a0.881,0.881,0,0,0-.931-0.99,1,1,0,0,0-1,1.21v0.49a1,1,0,0,0,.986,1.21,0.882,0.882,0,0,0,1-.96h1.57c0,1.44-.931,2.22-2.548,2.22a2.715,2.715,0,1,1,0-5.43C158.305,6195.64,159.313,6196.43,159.313,6197.89Zm6.418,0.47c0,1.79-1.056,2.71-2.864,2.71s-2.856-.92-2.856-2.71,1.046-2.72,2.856-2.72S165.731,6196.57,165.731,6198.36Zm-3.98-.25v0.49a1.123,1.123,0,1,0,2.239,0v-0.49A1.123,1.123,0,1,0,161.751,6198.11Zm11.134,2.87H171.2v-1.89a13.732,13.732,0,0,1,.124-1.66h-0.031l-0.978,3.55h-1.332L168,6197.43h-0.031a12.285,12.285,0,0,1,.139,1.66v1.89h-1.564v-5.24h2.4l0.8,3.02h0.03l0.793-3.02h2.316v5.24Zm1.036,0v-5.24H178.5v1.25h-2.881v0.73h2.464v1.2h-2.464v0.8h2.934v1.26h-4.634Z" transform="translate(-127 -6155)"/>
  <path id="Shape_15_copy" data-name="Shape 15 copy" class="cls-2" d="M157.121,6169.28a7.14,7.14,0,1,0-7.211-7.14A7.179,7.179,0,0,0,157.121,6169.28Z" transform="translate(-127 -6155)"/>
</svg>
